<svg xmlns="http://www.w3.org/2000/svg" width="171" height="60" fill="none" viewBox="0 0 171 60">
  <rect width="122" height="60" fill="#D83A00" rx="10"/>
  <path fill="#fff" d="M75.296 33.238c0-4.23-6.246-3.24-6.246-5.436 0-.792.558-1.17 1.296-1.152.828.018 1.404.504 1.458 1.314h3.33c-.126-2.412-1.98-3.78-4.734-3.78-2.646 0-4.608 1.332-4.608 3.726-.036 4.482 6.282 3.222 6.282 5.562 0 .738-.576 1.188-1.476 1.188-.864 0-1.476-.468-1.566-1.44h-3.276c.09 2.556 2.214 3.906 4.932 3.906 2.952 0 4.608-1.764 4.608-3.888Zm6.322-3.96c1.026 0 1.89.63 1.89 1.728h-3.852c.18-1.116.954-1.728 1.962-1.728Zm4.806 4.392h-3.276c-.252.54-.738.972-1.602.972-.99 0-1.8-.612-1.908-1.926h6.966c.036-.306.054-.612.054-.9 0-3.06-2.07-5.004-5.004-5.004-2.988 0-5.076 1.98-5.076 5.166 0 3.186 2.124 5.166 5.076 5.166 2.502 0 4.284-1.512 4.77-3.474ZM95.212 37h3.06v-5.868c0-2.7-1.548-4.284-3.87-4.284-1.35 0-2.43.594-3.042 1.44v-1.332h-3.078V37h3.078v-5.454c0-1.368.756-2.124 1.926-2.124s1.926.756 1.926 2.124V37Zm4.587-5.04c0 3.168 1.962 5.184 4.428 5.184 1.476 0 2.538-.666 3.096-1.584V37h3.078V23.68h-3.078v4.662c-.612-.918-1.764-1.53-3.096-1.53-2.466 0-4.428 1.98-4.428 5.148Zm7.524.018c0 1.602-1.026 2.484-2.196 2.484-1.152 0-2.196-.9-2.196-2.502 0-1.602 1.044-2.466 2.196-2.466 1.17 0 2.196.882 2.196 2.484Zm8.507-.018c0 3.168 1.962 5.184 4.41 5.184 1.494 0 2.556-.684 3.114-1.566V37h3.078V26.956h-3.078v1.422c-.54-.882-1.602-1.566-3.096-1.566-2.466 0-4.428 1.98-4.428 5.148Zm7.524.018c0 1.602-1.026 2.484-2.196 2.484-1.152 0-2.196-.9-2.196-2.502 0-1.602 1.044-2.466 2.196-2.466 1.17 0 2.196.882 2.196 2.484ZM132.473 37h3.078v-7.596L138.395 37h2.484l2.826-7.578V37h3.078V24.364h-3.618l-3.51 8.748-3.546-8.748h-3.636V37Zm15.912-5.04c0 3.168 1.962 5.184 4.41 5.184 1.494 0 2.556-.684 3.114-1.566V37h3.078V26.956h-3.078v1.422c-.54-.882-1.602-1.566-3.096-1.566-2.466 0-4.428 1.98-4.428 5.148Zm7.524.018c0 1.602-1.026 2.484-2.196 2.484-1.152 0-2.196-.9-2.196-2.502 0-1.602 1.044-2.466 2.196-2.466 1.17 0 2.196.882 2.196 2.484ZM161.214 37h3.078V26.956h-3.078V37Zm1.548-11.088c1.08 0 1.818-.738 1.818-1.656 0-.936-.738-1.674-1.818-1.674-1.098 0-1.836.738-1.836 1.674 0 .918.738 1.656 1.836 1.656ZM166.522 37h3.078V23.68h-3.078V37ZM47.667 16.666H24.333a5 5 0 0 0-5 5v16.667a5 5 0 0 0 5 5h23.334a5 5 0 0 0 5-5V21.667a5 5 0 0 0-5-5ZM46.983 20l-9.8 9.8a1.667 1.667 0 0 1-2.366 0l-9.8-9.8h21.966Zm2.35 18.333A1.667 1.667 0 0 1 47.667 40H24.333a1.667 1.667 0 0 1-1.666-1.667V22.35l9.8 9.8a5 5 0 0 0 7.066 0l9.8-9.8v15.983Z"/>
</svg>
