<svg xmlns="http://www.w3.org/2000/svg" width="155" height="60" fill="none" viewBox="0 0 155 60">
  <rect width="106" height="60" fill="#0B35D9" rx="10"/>
  <path fill="#fff" d="M69.194 30.016v-3.168h1.674c1.224 0 1.746.612 1.746 1.584 0 .972-.522 1.584-1.746 1.584h-1.674Zm6.552-1.584c0-2.322-1.548-4.068-4.644-4.068h-4.986V37h3.078v-4.536h1.908c3.222 0 4.644-1.944 4.644-4.032ZM77.348 37h3.078v-5.454c0-1.368.756-2.124 1.926-2.124s1.926.756 1.926 2.124V37h3.06v-5.868c0-2.7-1.53-4.284-3.816-4.284-1.386 0-2.484.594-3.096 1.458V23.68h-3.078V37Zm21.957-5.022c0-3.186-2.268-5.166-5.22-5.166-2.934 0-5.22 1.98-5.22 5.166 0 3.186 2.232 5.166 5.184 5.166s5.256-1.98 5.256-5.166Zm-7.308 0c0-1.71.972-2.502 2.088-2.502 1.08 0 2.088.792 2.088 2.502 0 1.692-1.026 2.502-2.124 2.502-1.116 0-2.052-.81-2.052-2.502ZM107.868 37h3.06v-5.868c0-2.7-1.548-4.284-3.87-4.284-1.35 0-2.43.594-3.042 1.44v-1.332h-3.078V37h3.078v-5.454c0-1.368.756-2.124 1.926-2.124s1.926.756 1.926 2.124V37Zm9.627-7.722c1.026 0 1.89.63 1.89 1.728h-3.852c.18-1.116.954-1.728 1.962-1.728Zm4.806 4.392h-3.276c-.252.54-.738.972-1.602.972-.99 0-1.8-.612-1.908-1.926h6.966c.036-.306.054-.612.054-.9 0-3.06-2.07-5.004-5.004-5.004-2.988 0-5.076 1.98-5.076 5.166 0 3.186 2.124 5.166 5.076 5.166 2.502 0 4.284-1.512 4.77-3.474Zm5.672 3.33h3.078v-7.596L133.895 37h2.484l2.826-7.578V37h3.078V24.364h-3.618l-3.51 8.748-3.546-8.748h-3.636V37Zm20.952-7.722c1.026 0 1.89.63 1.89 1.728h-3.852c.18-1.116.954-1.728 1.962-1.728Zm4.806 4.392h-3.276c-.252.54-.738.972-1.602.972-.99 0-1.8-.612-1.908-1.926h6.966c.036-.306.054-.612.054-.9 0-3.06-2.07-5.004-5.004-5.004-2.988 0-5.076 1.98-5.076 5.166 0 3.186 2.124 5.166 5.076 5.166 2.502 0 4.284-1.512 4.77-3.474ZM45.4 31.667c-.367 0-.75-.117-1.117-.2a15.735 15.735 0 0 1-2.183-.65 3.333 3.333 0 0 0-4.133 1.666l-.367.75a20.3 20.3 0 0 1-4.433-3.333 20.303 20.303 0 0 1-3.334-4.433l.7-.467a3.333 3.333 0 0 0 1.667-4.133 17.217 17.217 0 0 1-.65-2.184c-.083-.366-.15-.75-.2-1.133a5 5 0 0 0-5-4.15h-5a5 5 0 0 0-5 5.683 31.666 31.666 0 0 0 27.533 27.434h.634a5 5 0 0 0 3.333-1.267 4.999 4.999 0 0 0 1.667-3.75v-5a5 5 0 0 0-4.117-4.833Zm.833 10a1.666 1.666 0 0 1-.566 1.25 1.75 1.75 0 0 1-1.367.416A28.333 28.333 0 0 1 19.783 18.7a1.817 1.817 0 0 1 .417-1.367 1.667 1.667 0 0 1 1.25-.566h5a1.667 1.667 0 0 1 1.667 1.316c.066.456.15.906.25 1.35.192.879.448 1.742.766 2.584L26.8 23.1a1.669 1.669 0 0 0-.817 2.217A24.15 24.15 0 0 0 37.65 36.983c.406.167.86.167 1.267 0a1.67 1.67 0 0 0 .95-.866l1.033-2.334a22.82 22.82 0 0 0 2.633.767c.445.1.895.183 1.35.25a1.668 1.668 0 0 1 1.317 1.667l.033 5.2Z"/>
</svg>
