<svg xmlns="http://www.w3.org/2000/svg" width="30" height="30" fill="none" viewBox="0 0 30 30">
  <path fill="#1BE069" d="M24.3 16.25c-.275 0-.563-.087-.838-.15a11.79 11.79 0 0 1-1.637-.487 2.5 2.5 0 0 0-3.1 1.25l-.275.562a15.223 15.223 0 0 1-3.325-2.5 15.22 15.22 0 0 1-2.5-3.325l.525-.35a2.5 2.5 0 0 0 1.25-3.1 12.896 12.896 0 0 1-.488-1.637 9.274 9.274 0 0 1-.15-.85 3.75 3.75 0 0 0-3.75-3.113h-3.75a3.75 3.75 0 0 0-3.75 4.263 23.75 23.75 0 0 0 20.65 20.575h.475a3.75 3.75 0 0 0 2.5-.95 3.751 3.751 0 0 0 1.25-2.813v-3.75A3.75 3.75 0 0 0 24.3 16.25Zm.625 7.5a1.25 1.25 0 0 1-.425.938 1.312 1.312 0 0 1-1.025.312A21.25 21.25 0 0 1 5.087 6.525 1.363 1.363 0 0 1 5.4 5.5a1.25 1.25 0 0 1 .937-.425h3.75a1.25 1.25 0 0 1 1.25.988c.05.341.113.679.188 1.012.144.659.336 1.307.575 1.938l-1.75.812a1.249 1.249 0 0 0-.613 1.663 18.112 18.112 0 0 0 8.75 8.75c.305.125.646.125.95 0a1.248 1.248 0 0 0 .713-.65l.775-1.75a17.3 17.3 0 0 0 1.975.575c.333.075.67.137 1.012.187a1.25 1.25 0 0 1 .988 1.25l.025 3.9Z"/>
</svg>
