<svg xmlns="http://www.w3.org/2000/svg" width="360" height="34" fill="none" viewBox="0 0 360 34">
  <path fill="#fff" d="M.948 9.04h5.58V25h6.66V9.04h5.64V3.76H.948v5.28ZM20.635 25h6.66v-8.97c0-1.62.9-2.61 2.37-2.61 1.44 0 2.37.99 2.37 2.61V25h6.63v-9.81c0-4.38-2.28-7.23-6.18-7.23-2.55 0-4.23 1.23-5.19 2.7V2.8h-6.66V25Zm20.018-8.46c0 5.46 3.09 8.67 6.99 8.67 2.25 0 3.87-.99 4.68-2.52V25h6.63V8.08h-6.63v2.31c-.81-1.53-2.43-2.52-4.68-2.52-3.9 0-6.99 3.21-6.99 8.67Zm11.67 0c0 1.86-1.08 2.85-2.46 2.85s-2.46-.99-2.46-2.85 1.08-2.85 2.46-2.85 2.46.99 2.46 2.85ZM73.343 25h6.63v-9.81c0-4.38-2.28-7.23-6.18-7.23-2.55 0-4.23 1.23-5.19 2.7V8.08h-6.66V25h6.66v-8.97c0-1.62.9-2.61 2.37-2.61 1.44 0 2.37.99 2.37 2.61V25Zm9.518 0h6.66v-6.75l4.17 6.75h7.95l-6.48-8.4 6.33-8.52h-7.74l-4.23 6.33V2.8h-6.66V25Zm35.004-5.07c0-6.51-8.85-4.56-8.85-6.66 0-.51.39-.78 1.05-.78 1.08 0 1.74.54 1.92 1.44h5.91c-.48-3.33-2.85-6.06-7.68-6.06-4.77 0-7.2 2.52-7.2 5.58 0 6.21 8.73 4.17 8.73 6.39 0 .42-.42.78-1.11.78-1.02 0-1.83-.45-1.98-1.47h-6.39c.3 3.45 3.51 6.06 8.4 6.06 4.5 0 7.2-2.28 7.2-5.28Zm8.34 5.07h6.66V13.63h2.49V8.08h-2.43c.21-1.08.9-1.38 2.43-1.2V1.21c-5.73-.51-9.09 2.07-9.15 6.87h-1.8v5.55h1.8V25Zm27.923-8.46c0-5.4-3.84-8.67-8.94-8.67s-8.94 3.27-8.94 8.67 3.84 8.67 8.94 8.67 8.94-3.27 8.94-8.67Zm-11.13 0c0-2.01 1.02-2.91 2.19-2.91s2.19.9 2.19 2.91c0 2.01-1.02 2.91-2.19 2.91-1.2 0-2.19-.9-2.19-2.91Zm19.883 1.53c0-2.31 1.26-3 3.66-3h1.89V7.96c-2.19 0-4.23 1.35-5.55 3.24V8.08h-6.66V25h6.66v-6.93Zm12.321-2.34c0 6.27 3.9 9.48 9.21 9.48 5.31 0 9.6-3.21 9.6-9.48V3.76h-6.63v11.97c0 1.83-.81 3.18-2.82 3.18s-2.73-1.35-2.73-3.18V3.76h-6.63v11.97Zm32.903-4.59c0 1.26-.66 1.8-1.92 1.8h-2.64v-3.6h2.64c1.26 0 1.92.72 1.92 1.8Zm-11.22-7.38V25h6.66v-7.62h.03l3.99 7.62h7.32l-4.62-8.13c3.03-.99 4.59-3.36 4.59-6.15 0-3.9-2.73-6.96-8.07-6.96h-9.9Zm41.605 14.67c0-6.54-9.87-6.09-9.87-8.76 0-.72.42-1.08.96-1.08.72 0 1.41.39 1.47 1.68h7.17c-.18-4.41-3.48-6.87-8.61-6.87-4.53 0-8.13 2.22-8.13 6.48-.12 7.26 9.9 6.21 9.93 9.09 0 .75-.63 1.05-1.29 1.05s-1.5-.27-1.62-1.83h-7.08c.3 4.77 4.11 7.02 8.97 7.02 5.13 0 8.1-2.88 8.1-6.78Zm1.44-1.89c0 5.4 3.57 8.67 8.64 8.67 4.35 0 7.62-2.58 8.43-7.02h-7.05c-.24.81-.69 1.32-1.53 1.32-1.02 0-1.74-.93-1.74-2.97s.72-2.97 1.74-2.97c.84 0 1.29.51 1.53 1.32H257c-.81-4.44-4.08-7.02-8.43-7.02-5.07 0-8.64 3.27-8.64 8.67Zm25.841 1.53c0-2.31 1.26-3 3.66-3h1.89V7.96c-2.19 0-4.23 1.35-5.55 3.24V8.08h-6.66V25h6.66v-6.93Zm24.324-1.53c0-5.4-3.84-8.67-8.94-8.67s-8.94 3.27-8.94 8.67 3.84 8.67 8.94 8.67 8.94-3.27 8.94-8.67Zm-11.13 0c0-2.01 1.02-2.91 2.19-2.91s2.19.9 2.19 2.91c0 2.01-1.02 2.91-2.19 2.91-1.2 0-2.19-.9-2.19-2.91ZM292.188 25h6.66V2.8h-6.66V25Zm9.667 0h6.66V2.8h-6.66V25Zm9.668 0h6.66V8.08h-6.66V25Zm3.36-18.27c2.34 0 3.81-1.44 3.81-3.27 0-1.86-1.47-3.33-3.81-3.33-2.37 0-3.84 1.47-3.84 3.33 0 1.83 1.47 3.27 3.84 3.27ZM332.591 25h6.63v-9.81c0-4.38-2.28-7.23-6.18-7.23-2.55 0-4.23 1.23-5.19 2.7V8.08h-6.66V25h6.66v-8.97c0-1.62.9-2.61 2.37-2.61 1.44 0 2.37.99 2.37 2.61V25Zm8.618-8.46c0 5.46 3.09 8.67 6.99 8.67 2.25 0 3.87-.99 4.68-2.52v2.01c0 2.37-1.14 2.85-2.49 2.85-1.23 0-1.98-.45-2.16-1.32h-6.54c.45 4.29 3.66 7.08 9.18 7.08 6.33 0 8.64-4.14 8.64-8.61V8.08h-6.63v2.31c-.81-1.53-2.43-2.52-4.68-2.52-3.9 0-6.99 3.21-6.99 8.67Zm11.67 0c0 1.86-1.08 2.85-2.46 2.85s-2.46-.99-2.46-2.85 1.08-2.85 2.46-2.85 2.46.99 2.46 2.85Z"/>
</svg>
