<svg xmlns="http://www.w3.org/2000/svg" width="186" height="60" fill="none" viewBox="0 0 186 60">
  <rect width="122" height="60" fill="#00A637" rx="10"/>
  <path fill="#fff" d="M65.594 30.664c0 3.78 2.628 6.426 6.354 6.426 3.006 0 5.274-1.674 5.994-4.41h-3.384c-.522 1.08-1.476 1.62-2.646 1.62-1.89 0-3.186-1.404-3.186-3.636s1.296-3.636 3.186-3.636c1.17 0 2.124.54 2.646 1.62h3.384c-.72-2.736-2.988-4.428-5.994-4.428-3.726 0-6.354 2.664-6.354 6.444ZM79.827 37h3.078v-5.454c0-1.368.756-2.124 1.926-2.124s1.926.756 1.926 2.124V37h3.06v-5.868c0-2.7-1.53-4.284-3.816-4.284-1.386 0-2.484.594-3.096 1.458V23.68h-3.078V37Zm11.517-5.04c0 3.168 1.962 5.184 4.41 5.184 1.494 0 2.556-.684 3.114-1.566V37h3.078V26.956h-3.078v1.422c-.54-.882-1.602-1.566-3.096-1.566-2.466 0-4.428 1.98-4.428 5.148Zm7.524.018c0 1.602-1.026 2.484-2.196 2.484-1.152 0-2.196-.9-2.196-2.502 0-1.602 1.044-2.466 2.196-2.466 1.17 0 2.196.882 2.196 2.484Zm5.791 1.53c0 2.61 1.458 3.492 3.546 3.492h1.566v-2.61h-1.098c-.684 0-.936-.252-.936-.846v-4.032h2.016v-2.556h-2.016v-2.448h-3.078v2.448h-1.224v2.556h1.224v3.996ZM116.992 37h3.384l1.638-6.516L123.598 37H127l2.718-10.044h-2.898l-1.404 7.146-1.71-7.146h-3.258l-1.692 7.182-1.422-7.182h-3.078L116.992 37Zm13.899 0h3.078V26.956h-3.078V37Zm1.548-11.088c1.08 0 1.818-.738 1.818-1.656 0-.936-.738-1.674-1.818-1.674-1.098 0-1.836.738-1.836 1.674 0 .918.738 1.656 1.836 1.656Zm4.247 7.596c0 2.61 1.458 3.492 3.546 3.492h1.566v-2.61H140.7c-.684 0-.936-.252-.936-.846v-4.032h2.016v-2.556h-2.016v-2.448h-3.078v2.448h-1.224v2.556h1.224v3.996ZM143.512 37h3.078v-5.454c0-1.368.756-2.124 1.926-2.124s1.926.756 1.926 2.124V37h3.06v-5.868c0-2.7-1.53-4.284-3.816-4.284-1.386 0-2.484.594-3.096 1.458V23.68h-3.078V37Zm15.944 0h3.078v-7.596L165.378 37h2.484l2.826-7.578V37h3.078V24.364h-3.618l-3.51 8.748-3.546-8.748h-3.636V37Zm20.951-7.722c1.026 0 1.89.63 1.89 1.728h-3.852c.18-1.116.954-1.728 1.962-1.728Zm4.806 4.392h-3.276c-.252.54-.738.972-1.602.972-.99 0-1.8-.612-1.908-1.926h6.966c.036-.306.054-.612.054-.9 0-3.06-2.07-5.004-5.004-5.004-2.988 0-5.076 1.98-5.076 5.166 0 3.186 2.124 5.166 5.076 5.166 2.502 0 4.284-1.512 4.77-3.474Zm-142.546-.337c-.334-.166-2.5-1.166-2.834-1.333-.333-.167-.666-.167-1 .166-.333.334-1 1.334-1.333 1.667-.167.334-.5.334-.833.167-1.167-.5-2.334-1.167-3.334-2A19.18 19.18 0 0 1 31 29.166c-.167-.333 0-.666.167-.833.166-.166.333-.5.666-.666.167-.167.334-.5.334-.667a.507.507 0 0 0 0-.667c-.167-.166-1-2.166-1.334-3-.166-1.166-.5-1.166-.833-1.166h-.833c-.334 0-.834.333-1 .5-1 1-1.5 2.166-1.5 3.5.166 1.5.666 3 1.666 4.333 1.834 2.666 4.167 4.833 7 6.166.834.334 1.5.667 2.334.834.833.333 1.666.333 2.666.166 1.167-.166 2.167-1 2.834-2 .333-.666.333-1.333.166-2l-.666-.333Zm4.166-15.166c-6.5-6.5-17-6.5-23.5 0-5.333 5.333-6.333 13.5-2.666 20l-2.334 8.5 8.834-2.334c2.5 1.334 5.166 2 7.833 2 9.167 0 16.5-7.333 16.5-16.5.167-4.333-1.667-8.5-4.667-11.666Zm-4.5 23.333c-2.166 1.333-4.666 2.166-7.333 2.166-2.5 0-4.833-.666-7-1.833l-.5-.333-5.167 1.333 1.334-5-.334-.5c-4-6.666-2-15 4.5-19.166 6.5-4.167 14.834-2 18.834 4.333 4 6.5 2.166 15-4.334 19Z"/>
</svg>
